<svg fill="none" height="24" viewBox="0 0 24 24" width="24" xmlns="http://www.w3.org/2000/svg"><path clip-rule="evenodd" d="m22 4c0-1.10457-.8954-2-2-2s-2 .89543-2 2c0 .37069.1011.71819.277 1.01591l-2.2586 2.25855-2.2016-2.4375c.1176-.25482.1832-.53854.1832-.83696 0-1.10457-.8954-2-2-2s-2 .89543-2 2c0 .09444.0066.18751.0193.27874l-4.42592 2.51248c-.36501-.48048-.94254-.79122-1.59338-.79122-1.10457 0-2 .89543-2 2s.89543 2 2 2c.65084 0 1.22837-.31074 1.59338-.79122l4.42592 2.51252c-.0127.0912-.0193.1843-.0193.2787s.0066.1875.0193.2787l-4.42585 2.5125c-.03274-.0431-.06719-.0849-.10325-.1251l2.04452-3.0668-.83205-.5547-2.04429 3.0664c-.2064-.0719-.42806-.111-.65838-.111-1.10457 0-2 .8954-2 2s.89543 2 2 2c.65084 0 1.22837-.3107 1.59338-.7912l4.42592 2.5125c-.0127.0912-.0193.1843-.0193.2787 0 1.1046.8954 2 2 2s2-.8954 2-2c0-.2984-.0656-.5821-.1832-.837l2.2016-2.4375 2.2586 2.2586c-.1759.2977-.277.6452-.277 1.0159 0 1.1046.8954 2 2 2s2-.8954 2-2-.8954-2-2-2c-.3707 0-.7182.1011-1.0159.277l-2.2945-2.2945 2.1352-2.3641c.3298.2398.7359.3816 1.1752.3816 1.1046 0 2-.8954 2-2s-.8954-2-2-2c-.4393 0-.8454.1418-1.1752.3816l-2.1352-2.36408 2.2945-2.2945c.2977.17583.6452.27698 1.0159.27698 1.1046 0 2-.89543 2-2zm-6.0184 4.72554 2.2016 2.43746c-.1176.2549-.1832.5386-.1832.837s.0656.5821.1832.837l-2.2016 2.4375-2.2586-2.2586c.1759-.2977.277-.6452.277-1.0159s-.1011-.7182-.277-1.0159zm-2.9657 1.55146c-.2977-.1759-.6452-.277-1.0159-.277-.6508 0-1.2284.3107-1.5934.7912l-4.42593-2.51246c.01275-.09123.01933-.1843.01933-.27874s-.00658-.18751-.01933-.27874l4.42593-2.51244c.0327.04311.0671.08485.1032.1251l-2.1103 3.16545.83205.5547 2.11005-3.16511c.2064.07194.4281.11104.6584.11104.4393 0 .8454-.14184 1.1752-.38158l2.1352 2.36406zm0 3.446 2.2945 2.2945-2.1353 2.3641c-.3297-.2398-.7358-.3816-1.1751-.3816-.6508 0-1.2284.3107-1.5934.7912l-4.42593-2.5125c.01275-.0912.01933-.1843.01933-.2787s-.00658-.1875-.01933-.2787l4.42593-2.5125c.365.4805.9426.7912 1.5934.7912.3707 0 .7182-.1011 1.0159-.277zm6.9841-10.723c.5523 0 1 .44772 1 1s-.4477 1-1 1c-.2763 0-.5256-.11138-.7071-.29289-.1815-.18152-.2929-.43083-.2929-.70711 0-.55228.4477-1 1-1zm-8 0c.5523 0 1 .44772 1 1 0 .22571-.0742.43266-.1997.59975-.1833.24399-.4735.40025-.8003.40025-.2059 0-.3959-.06171-.5544-.16756-.1735-.11588-.3084-.28427-.3823-.48125-.0408-.1086-.0633-.22669-.0633-.35119 0-.55228.4477-1 1-1zm-8 4c.42791 0 .79424.26899.93674.64881.04074.1086.06326.22669.06326.35119s-.02252.24259-.06326.35119c-.1425.37982-.50883.64881-.93674.64881-.55228 0-1-.44772-1-1s.44772-1 1-1zm16 4c.5523 0 1 .4477 1 1s-.4477 1-1 1c-.3268 0-.617-.1563-.8003-.4003-.1255-.167-.1997-.374-.1997-.5997s.0742-.4327.1997-.5997c.1833-.244.4735-.4003.8003-.4003zm-8 0c.2763 0 .5256.1114.7071.2929s.2929.4308.2929.7071-.1114.5256-.2929.7071-.4308.2929-.7071.2929c-.4279 0-.7942-.269-.9367-.6488-.0408-.1086-.0633-.2267-.0633-.3512s.0225-.2426.0633-.3512c.1425-.3798.5088-.6488.9367-.6488zm-8 4c.20594 0 .39595.0617.55441.1676.17346.1158.30842.2842.38233.4812.04074.1086.06326.2267.06326.3512s-.02252.2426-.06326.3512c-.1425.3798-.50883.6488-.93674.6488-.55228 0-1-.4477-1-1s.44772-1 1-1zm16 4c.5523 0 1 .4477 1 1s-.4477 1-1 1-1-.4477-1-1c0-.2763.1114-.5256.2929-.7071s.4308-.2929.7071-.2929zm-8 0c.3268 0 .617.1563.8003.4003.1255.167.1997.374.1997.5997 0 .5523-.4477 1-1 1s-1-.4477-1-1c0-.1245.0225-.2426.0633-.3512.1425-.3798.5088-.6488.9367-.6488z" fill="#292d3d" fill-rule="evenodd"/></svg>